<svg width="26" height="28" viewBox="0 0 26 28" fill="none" xmlns="http://www.w3.org/2000/svg">
<path d="M13 0.263184C10.4288 0.263184 7.91543 1.06575 5.77759 2.56939C3.63975 4.07303 1.97351 6.21021 0.989572 8.71067C0.0056327 11.2111 -0.251811 13.9626 0.249797 16.6171C0.751405 19.2715 1.98953 21.7098 3.80762 23.6236C5.6257 25.5374 7.94208 26.8407 10.4638 27.3687C12.9856 27.8967 15.5995 27.6257 17.9749 26.59C20.3503 25.5542 22.3807 23.8003 23.8091 21.5499C25.2376 19.2996 26 16.6539 26 13.9474C25.9934 10.3203 24.6216 6.84366 22.1851 4.27888C19.7486 1.7141 16.4458 0.270139 13 0.263184ZM13 22.3684C12.7033 22.3684 12.4133 22.2758 12.1667 22.1023C11.92 21.9289 11.7277 21.6823 11.6142 21.3937C11.5007 21.1052 11.471 20.7877 11.5288 20.4815C11.5867 20.1752 11.7296 19.8938 11.9393 19.673C12.1491 19.4522 12.4164 19.3018 12.7074 19.2409C12.9983 19.18 13.2999 19.2112 13.574 19.3307C13.8481 19.4503 14.0824 19.6526 14.2472 19.9123C14.412 20.1719 14.5 20.4772 14.5 20.7895C14.5 21.2083 14.342 21.6099 14.0607 21.906C13.7794 22.2021 13.3978 22.3684 13 22.3684ZM14 15.9342V16.0527C14 16.3318 13.8946 16.5996 13.7071 16.797C13.5196 16.9944 13.2652 17.1053 13 17.1053C12.7348 17.1053 12.4804 16.9944 12.2929 16.797C12.1054 16.5996 12 16.3318 12 16.0527V15C12 14.7209 12.1054 14.4531 12.2929 14.2557C12.4804 14.0583 12.7348 13.9474 13 13.9474C13.4945 13.9474 13.9778 13.7931 14.3889 13.5039C14.8001 13.2147 15.1205 12.8037 15.3097 12.3229C15.4989 11.842 15.5484 11.3129 15.452 10.8024C15.3555 10.2919 15.1174 9.82304 14.7678 9.45501C14.4181 9.08698 13.9727 8.83634 13.4877 8.7348C13.0028 8.63326 12.5001 8.68538 12.0433 8.88455C11.5865 9.08373 11.196 9.42103 10.9213 9.85379C10.6466 10.2865 10.5 10.7953 10.5 11.3158C10.5 11.595 10.3946 11.8627 10.2071 12.0601C10.0196 12.2575 9.76522 12.3684 9.50001 12.3684C9.23479 12.3684 8.98044 12.2575 8.7929 12.0601C8.60536 11.8627 8.50001 11.595 8.50001 11.3158C8.50001 10.4241 8.73912 9.55052 9.18985 8.79552C9.64057 8.04051 10.2846 7.43475 11.0479 7.04792C11.8111 6.66109 12.6626 6.5089 13.5044 6.60884C14.3462 6.70878 15.144 7.0568 15.8063 7.61288C16.4685 8.16896 16.9681 8.9105 17.2478 9.75222C17.5274 10.5939 17.5756 11.5016 17.3869 12.3709C17.1983 13.2402 16.7803 14.0358 16.1811 14.6662C15.582 15.2965 14.8259 15.7361 14 15.9342Z" fill="white"/>
</svg>
