<svg width="64" height="64" viewBox="0 0 64 64" fill="none" xmlns="http://www.w3.org/2000/svg">
<ellipse cx="32" cy="30.4238" rx="32" ry="30.4238" fill="white"/>
<path d="M43 20.8663V40.882C43 41.4128 42.7893 41.9219 42.4142 42.2973C42.0391 42.6726 41.5304 42.8835 41 42.8835H36.5C35.9696 42.8835 35.4609 42.6726 35.0858 42.2973C34.7107 41.9219 34.5 41.4128 34.5 40.882V20.8663C34.5 20.3355 34.7107 19.8264 35.0858 19.451C35.4609 19.0756 35.9696 18.8648 36.5 18.8648H41C41.5304 18.8648 42.0391 19.0756 42.4142 19.451C42.7893 19.8264 43 20.3355 43 20.8663ZM27.5 18.8648H23C22.4696 18.8648 21.9609 19.0756 21.5858 19.451C21.2107 19.8264 21 20.3355 21 20.8663V40.882C21 41.4128 21.2107 41.9219 21.5858 42.2973C21.9609 42.6726 22.4696 42.8835 23 42.8835H27.5C28.0304 42.8835 28.5391 42.6726 28.9142 42.2973C29.2893 41.9219 29.5 41.4128 29.5 40.882V20.8663C29.5 20.3355 29.2893 19.8264 28.9142 19.451C28.5391 19.0756 28.0304 18.8648 27.5 18.8648Z" fill="#396366"/>
</svg>
