<svg width="64" height="61" viewBox="0 0 64 61" fill="none" xmlns="http://www.w3.org/2000/svg">
<ellipse cx="32" cy="30.4238" rx="32" ry="30.4238" fill="white"/>
<path d="M45.0375 29.1603L27.0375 18.1642C26.7377 17.974 26.3914 17.87 26.0365 17.8633C25.6816 17.8567 25.3317 17.9478 25.025 18.1266C24.7138 18.2975 24.4543 18.5492 24.2739 18.8552C24.0936 19.1612 23.9989 19.5102 24 19.8655V41.8827C23.9989 42.238 24.0936 42.587 24.2739 42.893C24.4543 43.199 24.7138 43.4507 25.025 43.6216C25.3317 43.8004 25.6816 43.8915 26.0365 43.8849C26.3914 43.8782 26.7377 43.7742 27.0375 43.584L45.0375 32.5879C45.3325 32.4098 45.5766 32.1584 45.746 31.8582C45.9154 31.5579 46.0044 31.2189 46.0044 30.8741C46.0044 30.5293 45.9154 30.1903 45.746 29.89C45.5766 29.5898 45.3325 29.3384 45.0375 29.1603Z" fill="#BA4949"/>
</svg>
