<svg width="20" height="26" viewBox="0 0 20 26" fill="none" xmlns="http://www.w3.org/2000/svg">
<path d="M3.05176e-05 1.26316V24.4211C3.05176e-05 24.7002 0.105387 24.968 0.292923 25.1654C0.480459 25.3628 0.734814 25.4737 1.00003 25.4737C1.26525 25.4737 1.5196 25.3628 1.70714 25.1654C1.89467 24.968 2.00003 24.7002 2.00003 24.4211V14.7237L16.9625 24.3421C17.2761 24.5397 17.6346 24.6443 18 24.6447C18.3415 24.6496 18.678 24.5588 18.975 24.3816C19.2873 24.1997 19.5472 23.9326 19.7275 23.6085C19.9079 23.2844 20.002 22.9151 20 22.5395V3.14474C20.0005 2.77106 19.9065 2.40398 19.7276 2.08121C19.5487 1.75843 19.2915 1.49158 18.9823 1.30806C18.673 1.12454 18.323 1.03097 17.968 1.03695C17.6131 1.04294 17.266 1.14826 16.9625 1.3421L2.00003 10.9605V1.26316C2.00003 0.983982 1.89467 0.716241 1.70714 0.518834C1.5196 0.321428 1.26525 0.210526 1.00003 0.210526C0.734814 0.210526 0.480459 0.321428 0.292923 0.518834C0.105387 0.716241 3.05176e-05 0.983982 3.05176e-05 1.26316Z" fill="white"/>
</svg>
