<svg width="20" height="26" viewBox="0 0 20 26" fill="none" xmlns="http://www.w3.org/2000/svg">
<path d="M20 1.26316V24.4211C20 24.7002 19.8946 24.968 19.7071 25.1654C19.5195 25.3628 19.2652 25.4737 19 25.4737C18.7348 25.4737 18.4804 25.3628 18.2929 25.1654C18.1053 24.968 18 24.7002 18 24.4211V14.7237L3.03747 24.3421C2.72391 24.5397 2.36541 24.6443 1.99997 24.6447C1.65855 24.6496 1.32205 24.5588 1.02497 24.3816C0.712749 24.1997 0.452814 23.9326 0.272458 23.6085C0.0921026 23.2844 -0.00202122 22.9151 -3.00879e-05 22.5395V3.14474C-0.000500294 2.77106 0.0935246 2.40398 0.272389 2.08121C0.451253 1.75843 0.708511 1.49158 1.01774 1.30806C1.32698 1.12454 1.67704 1.03097 2.03199 1.03695C2.38694 1.04294 2.73398 1.14826 3.03747 1.3421L18 10.9605V1.26316C18 0.983982 18.1053 0.716241 18.2929 0.518834C18.4804 0.321428 18.7348 0.210526 19 0.210526C19.2652 0.210526 19.5195 0.321428 19.7071 0.518834C19.8946 0.716241 20 0.983982 20 1.26316Z" fill="white"/>
</svg>
